<?xml version="1.0" encoding="UTF-8"?>
<svg xmlns="http://www.w3.org/2000/svg" viewBox="0 0 1897 632" width="1897" height="632">
<path d="M736.35 133.5C736.35 161.01 736.35 188.53 736.35 216.04C741.99 217.77 753.16 216.7 759.5 216.71C775.5 216.72 791.5 216.76 807.5 216.77C860.5 216.8 913.5 216.8 966.5 216.86C973.16 216.86 979.85 216.7 986.5 217.2C1015.7 219.4 1048.28 229.51 1065.88 254.66C1071.02 262.02 1075.01 270.09 1077.81 278.63C1084.33 298.58 1082.28 320.83 1082.29 341.5C1082.3 355.6 1082.43 369.53 1079.78 383.44C1077.01 397.93 1069.6 411.47 1060.02 422.53C1041.78 443.62 1013.52 452.78 986.5 454.73C976.2 455.47 965.82 455.09 955.5 455.11C934.5 455.14 913.5 455.05 892.5 455.1C874.83 455.14 857.17 455.16 839.5 455.09C825.17 455.03 810.83 455.14 796.5 455.11C762.44 455.04 732.84 452.91 706 429.51C700.91 425.07 696.16 419.71 692.49 414.03C688 407.07 684.59 399.32 682.18 391.41C676.49 372.75 677.81 352.75 677.83 333.5C677.85 304.5 677.88 275.5 677.85 246.5C677.82 220.5 677.84 194.5 677.87 168.5C677.88 161.17 677.86 153.83 677.84 146.5C677.83 142.45 677.27 138.23 678.91 134.5C683.15 131.6 689.5 132.81 694.5 132.8C703.17 132.78 711.83 132.86 720.5 132.86C725.78 132.86 731.2 132.41 736.35 133.5ZM1321.74 137.5C1321.74 163.87 1321.74 190.23 1321.74 216.6C1352.29 217.32 1382.94 216.5 1413.5 216.61C1421.5 216.64 1429.5 216.59 1437.5 216.6C1441.02 216.61 1445.77 215.8 1448.98 217.53C1452.71 219.54 1451.62 225.05 1451.64 228.5C1451.69 236.5 1451.7 244.5 1451.64 252.5C1451.62 256.43 1452.2 260.45 1450.5 264.04C1446.7 265.98 1442.29 265.48 1438.05 265.5C1429.87 265.55 1421.68 265.52 1413.5 265.54C1383.2 265.62 1352.78 264.68 1322.5 265.7C1321.08 271.34 1321.73 277.65 1321.73 283.5C1321.73 293.5 1321.72 303.5 1321.71 313.5C1321.71 327.5 1321.67 341.5 1321.72 355.5C1321.74 363.23 1322.02 370.97 1324.2 378.44C1330.21 398.97 1348.9 405.3 1368.5 405.13C1386.83 404.97 1405.17 405.11 1423.5 405.11C1431.12 405.11 1443.48 403.95 1450.5 405.52C1452.09 410.04 1451.64 414.74 1451.65 419.5C1451.65 426.83 1451.57 434.17 1451.62 441.5C1451.65 445.15 1453 451.61 1449.61 454.09C1446.71 456.22 1441.89 455.28 1438.5 455.26C1429.83 455.19 1421.17 455.25 1412.5 455.29C1400.5 455.34 1388.5 455.3 1376.5 455.27C1351.69 455.21 1328.56 454.38 1306.23 442.3C1285.13 430.88 1270.63 409.96 1266.12 386.49C1263.03 370.4 1264.03 353.8 1264 337.5C1263.92 297.17 1263.99 256.83 1264.03 216.5C1264.05 198.17 1264.05 179.83 1264.04 161.5C1264.03 155.35 1262.63 142.8 1265.5 137.81C1270.35 135.66 1277.19 136.79 1282.5 136.8C1290.17 136.81 1297.83 136.83 1305.5 136.82C1310.93 136.81 1316.45 136.4 1321.74 137.5ZM165.6 217.4C175.21 216.56 184.87 216.8 194.5 216.82C206.83 216.83 219.17 216.8 231.5 216.82C240.83 216.83 250.17 216.81 259.5 216.82C273.45 216.84 287.57 216.2 301.5 217.11C330.46 219 360.43 227.81 379.7 250.78C383.87 255.76 387.59 261.28 390.35 267.18C402.05 292.12 399.81 319.7 399.85 346.5C399.9 377.45 397.16 403.74 374.04 426.54C357.74 442.61 334.91 451.18 312.5 453.91C300.53 455.37 288.54 455.16 276.5 455.13C264.17 455.1 251.83 455.17 239.5 455.14C229.83 455.11 220.17 455.1 210.5 455.11C192.93 455.13 174.97 456.09 157.5 453.86C129.69 450.31 100.95 437.41 85.52 412.99C70.66 389.47 71.17 366.3 71.2 339.5C71.22 320.25 69.79 300.28 75.01 281.53C77.5 272.58 81.35 263.82 86.62 256.16C104.28 230.5 135.93 220.02 165.6 217.4ZM638.37 217.5C641.56 220.82 640.79 225.17 640.75 229.5C640.7 236.83 640.7 244.17 640.76 251.5C640.79 255.63 641.39 259.73 639.48 263.5C636.04 265.46 632.41 264.95 628.5 264.95C621.5 264.96 614.5 264.93 607.5 264.95C590.17 265 572.83 264.92 555.5 264.96C542.44 265 529.79 264.39 517.74 270.26C495.07 281.33 496.96 303.98 496.91 325.5C496.85 354.5 496.88 383.5 496.93 412.5C496.94 421.5 496.94 430.5 496.96 439.5C496.97 444.5 497.5 449.79 496.19 454.62C477.63 454.62 459.06 454.62 440.5 454.62C440.07 453.75 439.6 453.3 439.35 452.34C438.74 449.93 439.23 446.96 439.25 444.5C439.29 439.5 439.24 434.5 439.25 429.5C439.3 410.83 439.24 392.17 439.25 373.5C439.25 357.5 439.28 341.5 439.28 325.5C439.27 313.91 438.7 302.06 440.25 290.54C442.87 271.08 451.25 251.84 466.59 239.06C472.86 233.83 480.2 229.46 487.64 226.15C496.45 222.23 505.97 219.39 515.5 218.02C535.04 215.2 555.77 216.55 575.5 216.56C589.17 216.57 602.83 216.61 616.5 216.58C623.55 216.57 631.62 215.51 638.37 217.5ZM1190.05 219.5C1191.73 225.07 1190.81 231.7 1190.82 237.5C1190.84 249.5 1190.78 261.5 1190.78 273.5C1190.82 312.83 1190.65 352.17 1190.81 391.5C1190.87 405.83 1190.82 420.17 1190.83 434.5C1190.84 440.86 1192.19 448.79 1189.5 454.61C1171.15 454.61 1152.79 454.61 1134.44 454.61C1133.68 447.02 1134.14 439.15 1134.14 431.5C1134.15 418.83 1134.09 406.17 1134.13 393.5C1134.25 357.17 1134.13 320.83 1134.11 284.5C1134.1 269.17 1134.11 253.83 1134.13 238.5C1134.14 232.62 1132.74 223.68 1135.5 218.59C1139.3 216.51 1144.26 217.4 1148.5 217.4C1157.82 217.39 1167.14 217.47 1176.46 217.5C1181.06 217.51 1186.46 216.34 1190.05 219.5ZM172.66 265.36C167.22 266.1 162.17 267.48 157.1 269.58C153.45 271.09 149.98 272.94 146.89 275.41C126.69 291.57 129.97 316.3 129.95 339.5C129.94 355.28 128.72 372.65 138.13 386.34C146.92 399.13 162.49 405.06 177.5 406.09C188.09 406.81 198.88 406.22 209.5 406.23C230.83 406.27 252.17 406.24 273.5 406.25C295.49 406.26 317.03 406.49 331.92 387.37C342.23 374.12 341.6 356.35 341.59 340.5C341.58 320.22 344.18 297.86 330.37 281.14C322.76 271.93 310.11 266.73 298.48 265.21C292.53 264.44 286.47 264.75 280.5 264.74C258.17 264.68 235.83 264.79 213.5 264.72C205.83 264.7 198.17 264.74 190.5 264.74C184.54 264.74 178.58 264.55 172.66 265.36ZM736.43 265.5C735.83 275.12 736.27 284.87 736.26 294.5C736.25 312.5 736.16 330.5 736.12 348.5C736.08 364.56 736.5 382.42 749.72 393.8C767.2 408.83 792.14 405.74 813.5 405.72C862.17 405.65 910.83 405.63 959.5 405.69C966.14 405.7 973 406.27 979.6 405.39C998 402.93 1014.09 394.64 1021.05 376.51C1025.43 365.1 1024.7 352.49 1024.71 340.5C1024.71 316.48 1028.01 286.9 1003.84 272.63C991.05 265.08 976.89 264.94 962.5 264.97C949.83 265 937.17 264.96 924.5 264.96C882.83 264.97 841.17 264.99 799.5 264.97C786.17 264.97 772.83 264.96 759.5 264.98C751.9 265 743.91 264.3 736.43 265.5Z" fill="#09182e" fill-rule="evenodd" stroke="#09182e" stroke-width="0.25" stroke-linejoin="round"/>
<path d="M1154.6 120.28C1159.59 119.34 1164.86 119.35 1169.8 120.6C1198.73 127.89 1204.31 167.11 1179.39 182.95C1176.06 185.06 1172.19 186.88 1168.31 187.68C1163.48 188.66 1158.07 188.58 1153.31 187.33C1142.83 184.58 1133.67 176.88 1129.75 166.69C1122.41 147.6 1134.08 124.14 1154.6 120.28ZM1842.96 218.5C1842.92 219.61 1843.3 220.16 1842.87 221.28C1842.5 222.24 1835.58 227.77 1834.31 228.85C1826.2 235.72 1818.28 242.8 1810.25 249.75C1793.12 264.6 1776.24 279.71 1759.14 294.6C1754.86 298.33 1750.8 302.32 1746.47 305.98C1739.62 311.77 1733.02 317.87 1726.26 323.77C1722.52 327.04 1717.61 330.4 1714.95 334.5C1720.3 340.1 1726.64 344.92 1732.46 350.03C1737.26 354.24 1741.96 358.54 1746.82 362.68C1769.45 381.97 1790.85 402.76 1813.76 421.72C1822.48 428.94 1830.77 436.73 1839.39 444.08C1840.89 445.35 1847.9 450.75 1848.42 452.04C1848.81 453 1848.47 453.47 1848.5 454.43C1845.06 456.8 1839.57 455.77 1835.5 455.76C1825.5 455.75 1815.5 455.77 1805.5 455.76C1794.83 455.75 1784.17 455.73 1773.5 455.77C1769.51 455.79 1761.46 456.6 1757.94 455.49C1755.4 454.7 1751.33 450.13 1749.26 448.24C1743.52 442.97 1737.7 437.81 1731.96 432.54C1718.6 420.26 1705.03 408.07 1691.27 396.22C1686.44 392.07 1681.68 387.8 1676.98 383.51C1674.1 380.87 1670.96 378.51 1668.5 375.48C1660.8 380.5 1653.24 388.53 1646.25 394.73C1632.13 407.25 1617.87 419.69 1604.03 432.52C1598.49 437.65 1592.78 442.61 1587.24 447.73C1585.04 449.76 1581.32 454.22 1578.69 455.27C1575.85 456.41 1567.87 455.66 1564.5 455.65C1554.17 455.64 1543.83 455.7 1533.5 455.68C1522.17 455.66 1510.83 455.57 1499.5 455.69C1494.67 455.74 1489.58 457.27 1487.02 452.5C1488.96 448.52 1493.65 445.46 1496.99 442.49C1499.62 440.15 1502.14 437.58 1504.93 435.43C1507.03 433.81 1509.43 432.68 1511.51 430.99C1515.54 427.72 1519.31 424.11 1523.24 420.71C1545.36 401.55 1567.36 382.18 1589.01 362.49C1595.63 356.47 1602.36 350.46 1609.19 344.67C1613.25 341.24 1618.03 337.81 1621.1 333.5C1618.08 330.47 1614.76 327.8 1611.62 324.9C1602.6 316.57 1593.53 308.29 1584.23 300.27C1574.23 291.65 1564.65 282.48 1554.86 273.62C1545.76 265.39 1536.47 257.37 1527.46 249.05C1520.01 242.17 1512.3 235.54 1504.73 228.79C1503.51 227.71 1496.7 222.06 1496.35 221.19C1495.93 220.11 1496.27 219.58 1496.22 218.5C1499.38 215.75 1504.47 216.79 1508.5 216.79C1518.17 216.77 1527.83 216.79 1537.5 216.78C1547.5 216.78 1557.5 216.77 1567.5 216.76C1571.28 216.75 1577.85 215.86 1581.25 217.24C1583.59 218.19 1585.69 221.28 1587.66 222.88C1594.38 228.36 1600.77 234.48 1607.14 240.37C1613.91 246.62 1620.92 252.57 1627.78 258.71C1640.99 270.53 1654.02 282.56 1667.5 294.05C1670.38 292.38 1672.71 289.94 1675.22 287.71C1680.34 283.16 1685.41 278.56 1690.54 274.02C1704.69 261.52 1718.85 249.02 1732.97 236.47C1738.09 231.92 1743.15 227.33 1748.35 222.87C1750.29 221.21 1752.41 218.26 1754.75 217.23C1758.32 215.67 1765.47 216.62 1769.5 216.58C1780.66 216.47 1791.82 216.44 1802.98 216.5C1812.15 216.55 1821.33 216.35 1830.5 216.37C1834.77 216.38 1839.51 215.74 1842.96 218.5Z" fill="#4362f6" fill-rule="evenodd" stroke="#4362f6" stroke-width="0.25" stroke-linejoin="round"/>
</svg>